ISO-10303-21;

HEADER;
FILE_DESCRIPTION((' '),'2;1');
FILE_NAME( 'gloveBoxShelf_v5.stp',
           '2026-08-08T08:26:08',
           (' '),
           ('---                        ---'),
           '                      V2026.1  Dec 31 2025',
           '        2026 (c)',
           ' ');
FILE_SCHEMA(('AP242_MANAGED_MODEL_BASED_3D_ENGINEERING_MIM_LF { 1 0 10303 442 1 1 4 }'));
ENDSEC;

DATA;
#1=APPLICATION_CONTEXT('Managed model based 3d engineering');
#2=APPLICATION_PROTOCOL_DEFINITION('international standard','ap242_managed_model_based_3d_engineering',2013,#1);
#3=(LENGTH_UNIT()NAMED_UNIT(*)SI_UNIT(.MILLI.,.METRE.));
#4=(NAMED_UNIT(*)PLANE_ANGLE_UNIT()SI_UNIT($,.RADIAN.));
#5=( GEOMETRIC_REPRESENTATION_CONTEXT(3)
       GLOBAL_UNCERTAINTY_ASSIGNED_CONTEXT((#6)) GLOBAL_UNIT_ASSIGNED_CONTEXT
  ((#3,#4)) REPRESENTATION_CONTEXT('Context #1',
  '3D Context with UNIT and UNCERTAINTY') );
#6=UNCERTAINTY_MEASURE_WITH_UNIT(LENGTH_MEASURE(0.005),#3,'distance_accuracy_value','Confusion accuracy');
#7=PRODUCT_CONTEXT('',#1,'mechanical');
#8=PRODUCT('gloveBoxShelf_v5','','',(#7));
#9=PRODUCT_DEFINITION_FORMATION('','',#8);
#10=PRODUCT_DEFINITION_CONTEXT('part definition',#1,'design');
#11=PRODUCT_DEFINITION('design','',#9,#10);
#12=PRODUCT_DEFINITION_SHAPE('','',#11);
#13=PRODUCT_CATEGORY('part',$);
#14=PRODUCT_RELATED_PRODUCT_CATEGORY('part',$,(#8));
#15=PRODUCT_CATEGORY_RELATIONSHIP('','',#13,#14);
#16=CARTESIAN_POINT('',(266.665813469,44.4504899329,-129.5468739172));
#17=VERTEX_POINT('',#16);
#18=CARTESIAN_POINT('',(266.717193388,45.0,-128.1698920892));
#19=VERTEX_POINT('',#18);
#20=CARTESIAN_POINT('',(266.717193388,43.0,-128.1698920892));
#21=DIRECTION('',(0.99930458,-0.0,-0.0372874843));
#22=DIRECTION('',(-0.0372874843,-0.0,-0.99930458));
#23=AXIS2_PLACEMENT_3D('',#20,#21,#22);
#24=ELLIPSE('',#23,2.001391808,2.0);
#25=EDGE_CURVE('no 4104',#17,#19,#24,.T.);
#26=ORIENTED_EDGE('',*,*,#25,.F.);
#27=CARTESIAN_POINT('',(5.334186531,44.4504899329,-129.5468739172));
#28=VERTEX_POINT('',#27);
#29=CARTESIAN_POINT('',(0.0,44.4504899329,-129.5468739172));
#30=DIRECTION('',(-1.0,0.0,0.0));
#31=VECTOR('',#30,1.0);
#32=LINE('',#29,#31);
#33=EDGE_CURVE('no 4119',#17,#28,#32,.T.);
#34=ORIENTED_EDGE('',*,*,#33,.T.);
#35=CARTESIAN_POINT('',(5.282806612,45.0,-128.1698920892));
#36=VERTEX_POINT('',#35);
#37=CARTESIAN_POINT('',(5.282806612,43.0,-128.1698920892));
#38=DIRECTION('',(-0.99930458,0.0,-0.0372874843));
#39=DIRECTION('',(-0.0372874843,0.0,0.99930458));
#40=AXIS2_PLACEMENT_3D('',#37,#38,#39);
#41=ELLIPSE('',#40,2.001391808,2.0);
#42=EDGE_CURVE('no 3798',#36,#28,#41,.T.);
#43=ORIENTED_EDGE('',*,*,#42,.F.);
#44=CARTESIAN_POINT('',(0.0,45.0,-128.1698920892));
#45=DIRECTION('',(-1.0,0.0,0.0));
#46=VECTOR('',#45,1.0);
#47=LINE('',#44,#46);
#48=EDGE_CURVE('no 3299',#19,#36,#47,.T.);
#49=ORIENTED_EDGE('',*,*,#48,.F.);
#50=EDGE_LOOP('',(#26,#34,#43,#49));
#51=FACE_OUTER_BOUND('',#50,.T.);
#52=CARTESIAN_POINT('',(0.0,43.0,-128.1698920892));
#53=DIRECTION('',(-1.0,0.0,0.0));
#54=DIRECTION('',(0.0,0.0,1.0));
#55=AXIS2_PLACEMENT_3D('',#52,#53,#54);
#56=CYLINDRICAL_SURFACE('',#55,2.0);
#57=ADVANCED_FACE('no 4116',(#51),#56,.T.);
#58=CARTESIAN_POINT('',(5.459362991,6.7097872485,-132.9016030447));
#59=VERTEX_POINT('',#58);
#60=CARTESIAN_POINT('',(5.418793345,5.0,-131.8143365337));
#61=VERTEX_POINT('',#60);
#62=CARTESIAN_POINT('',(5.2849116894,8.4822481828,-128.2263081624));
#63=DIRECTION('',(-0.99930458,0.0,-0.0372874843));
#64=DIRECTION('',(0.0372874843,0.0,-0.99930458));
#65=AXIS2_PLACEMENT_3D('',#62,#63,#64);
#66=ELLIPSE('',#65,5.00347952,5.0);
#67=EDGE_CURVE('no 4093',#59,#61,#66,.T.);
#68=ORIENTED_EDGE('',*,*,#67,.F.);
#69=CARTESIAN_POINT('',(266.540637009,6.7097872485,-132.9016030447));
#70=VERTEX_POINT('',#69);
#71=CARTESIAN_POINT('',(-55.770936107,6.7097872485,-132.9016030447));
#72=DIRECTION('',(1.0,0.0,0.0));
#73=VECTOR('',#72,1.0);
#74=LINE('',#71,#73);
#75=EDGE_CURVE('no 4120',#59,#70,#74,.T.);
#76=ORIENTED_EDGE('',*,*,#75,.T.);
#77=CARTESIAN_POINT('',(266.581206655,5.0,-131.8143365337));
#78=VERTEX_POINT('',#77);
#79=CARTESIAN_POINT('',(266.7150883106,8.4822481828,-128.2263081624));
#80=DIRECTION('',(0.99930458,-0.0,-0.0372874843));
#81=DIRECTION('',(0.0372874843,0.0,0.99930458));
#82=AXIS2_PLACEMENT_3D('',#79,#80,#81);
#83=ELLIPSE('',#82,5.00347952,5.0);
#84=EDGE_CURVE('no 3276',#78,#70,#83,.T.);
#85=ORIENTED_EDGE('',*,*,#84,.F.);
#86=CARTESIAN_POINT('',(-55.770936107,5.0,-131.8143365337));
#87=DIRECTION('',(1.0,0.0,0.0));
#88=VECTOR('',#87,1.0);
#89=LINE('',#86,#88);
#90=EDGE_CURVE('no 3686',#61,#78,#89,.T.);
#91=ORIENTED_EDGE('',*,*,#90,.F.);
#92=EDGE_LOOP('',(#68,#76,#85,#91));
#93=FACE_OUTER_BOUND('',#92,.T.);
#94=CARTESIAN_POINT('',(-55.770936107,8.4822481828,-128.2263081624));
#95=DIRECTION('',(1.0,0.0,0.0));
#96=DIRECTION('',(0.0,0.0,-1.0));
#97=AXIS2_PLACEMENT_3D('',#94,#95,#96);
#98=CYLINDRICAL_SURFACE('',#97,5.0);
#99=ADVANCED_FACE('no 4112',(#93),#98,.T.);
#100=CARTESIAN_POINT('',(266.554522632,10.8963025841,-132.5294683482));
#101=DIRECTION('',(-0.0033037055,-0.9960672049,-0.0885393071));
#102=VECTOR('',#101,1.0);
#103=LINE('',#100,#102);
#104=EDGE_CURVE('no 4141',#17,#70,#103,.T.);
#105=ORIENTED_EDGE('',*,*,#104,.F.);
#106=ORIENTED_EDGE('',*,*,#25,.T.);
#107=CARTESIAN_POINT('',(269.1922055685,45.0,-61.8395656516));
#108=VERTEX_POINT('',#107);
#109=CARTESIAN_POINT('',(271.1221707455,45.0,-10.1164989084));
#110=DIRECTION('',(-0.0372874843,0.0,-0.99930458));
#111=VECTOR('',#110,1.0);
#112=LINE('',#109,#111);
#113=EDGE_CURVE('no 3356',#108,#19,#112,.T.);
#114=ORIENTED_EDGE('',*,*,#113,.F.);
#115=CARTESIAN_POINT('',(269.3229578093,44.3650288928,-58.335405597));
#116=VERTEX_POINT('',#115);
#117=CARTESIAN_POINT('',(269.1922055685,35.0,-61.8395656516));
#118=DIRECTION('',(0.99930458,-0.0,-0.0372874843));
#119=DIRECTION('',(0.0372874843,0.0,0.99930458));
#120=AXIS2_PLACEMENT_3D('',#117,#118,#119);
#121=CIRCLE('',#120,10.0);
#122=EDGE_CURVE('no 3386',#108,#116,#121,.T.);
#123=ORIENTED_EDGE('',*,*,#122,.T.);
#124=CARTESIAN_POINT('',(271.2572699605,24.9409509822,-6.4958399455));
#125=VERTEX_POINT('',#124);
#126=CARTESIAN_POINT('',(271.50034771,22.5,0.0186437422));
#127=DIRECTION('',(-0.0349198368,0.3506598614,-0.9358516264));
#128=VECTOR('',#127,1.0);
#129=LINE('',#126,#128);
#130=EDGE_CURVE('no 3355',#125,#116,#129,.T.);
#131=ORIENTED_EDGE('',*,*,#130,.F.);
#132=CARTESIAN_POINT('',(271.499652048,15.5707124792,0.0));
#133=VERTEX_POINT('',#132);
#134=CARTESIAN_POINT('',(271.1265177196,15.5759220894,-10.0));
#135=DIRECTION('',(0.99930458,-0.0,-0.0372874843));
#136=DIRECTION('',(-0.0349198368,0.3506598614,-0.9358516264));
#137=AXIS2_PLACEMENT_3D('',#134,#135,#136);
#138=ELLIPSE('',#137,10.0079343237,10.0);
#139=EDGE_CURVE('no 3382',#125,#133,#138,.T.);
#140=ORIENTED_EDGE('',*,*,#139,.T.);
#141=CARTESIAN_POINT('',(271.499652048,2.0,-0.0));
#142=VERTEX_POINT('',#141);
#143=CARTESIAN_POINT('',(271.499652048,45.0,0.0));
#144=DIRECTION('',(0.0,1.0,0.0));
#145=VECTOR('',#144,1.0);
#146=LINE('',#143,#145);
#147=EDGE_CURVE('no 3360',#142,#133,#146,.T.);
#148=ORIENTED_EDGE('',*,*,#147,.F.);
#149=CARTESIAN_POINT('',(271.4250251823,0.0,-2.0));
#150=VERTEX_POINT('',#149);
#151=CARTESIAN_POINT('',(271.4250251823,2.0,-2.0));
#152=DIRECTION('',(0.99930458,-0.0,-0.0372874843));
#153=DIRECTION('',(-0.0372874843,-0.0,-0.99930458));
#154=AXIS2_PLACEMENT_3D('',#151,#152,#153);
#155=ELLIPSE('',#154,2.001391808,2.0);
#156=EDGE_CURVE('no 3383',#142,#150,#155,.T.);
#157=ORIENTED_EDGE('',*,*,#156,.T.);
#158=CARTESIAN_POINT('',(267.7369275047,-0.0,-100.841017761));
#159=VERTEX_POINT('',#158);
#160=CARTESIAN_POINT('',(271.1221707455,0.0,-10.1164989084));
#161=DIRECTION('',(0.0372874843,0.0,0.99930458));
#162=VECTOR('',#161,1.0);
#163=LINE('',#160,#162);
#164=EDGE_CURVE('no 3359',#159,#150,#163,.T.);
#165=ORIENTED_EDGE('',*,*,#164,.F.);
#166=CARTESIAN_POINT('',(268.4526991097,-3.0966457218,-81.6583387477));
#167=DIRECTION('',(0.0368115834,-0.159258109,0.9865504356));
#168=VECTOR('',#167,1.0);
#169=LINE('',#166,#168);
#170=EDGE_CURVE('no 3358',#78,#159,#169,.T.);
#171=ORIENTED_EDGE('',*,*,#170,.F.);
#172=ORIENTED_EDGE('',*,*,#84,.T.);
#173=EDGE_LOOP('',(
    #105,#106,#114,#123,#131,#140,#148,#157,#165,#171,
    #172));
#174=FACE_OUTER_BOUND('',#173,.T.);
#175=CARTESIAN_POINT('',(271.1221707455,0.0,-10.1164989084));
#176=DIRECTION('',(-0.99930458,0.0,0.0372874843));
#177=DIRECTION('',(0.0372874843,0.0,0.99930458));
#178=AXIS2_PLACEMENT_3D('',#175,#176,#177);
#179=PLANE('',#178);
#180=ADVANCED_FACE('no 4108',(#174),#179,.F.);
#181=CARTESIAN_POINT('',(5.4425086321,11.7913764363,-132.449906228));
#182=DIRECTION('',(-0.0033037055,0.9960672049,0.0885393071));
#183=VECTOR('',#182,1.0);
#184=LINE('',#181,#183);
#185=EDGE_CURVE('no 4095',#59,#28,#184,.T.);
#186=ORIENTED_EDGE('',*,*,#185,.F.);
#187=ORIENTED_EDGE('',*,*,#67,.T.);
#188=CARTESIAN_POINT('',(4.2630724953,-0.0,-100.841017761));
#189=VERTEX_POINT('',#188);
#190=CARTESIAN_POINT('',(3.0275661092,-5.3451765035,-67.7294466133));
#191=DIRECTION('',(0.0368115834,0.159258109,-0.9865504356));
#192=VECTOR('',#191,1.0);
#193=LINE('',#190,#192);
#194=EDGE_CURVE('no 3773',#189,#61,#193,.T.);
#195=ORIENTED_EDGE('',*,*,#194,.F.);
#196=CARTESIAN_POINT('',(0.5749748177,0.0,-2.0));
#197=VERTEX_POINT('',#196);
#198=CARTESIAN_POINT('',(0.49965229,0.0,0.0186437422));
#199=DIRECTION('',(0.0372874843,0.0,-0.99930458));
#200=VECTOR('',#199,1.0);
#201=LINE('',#198,#200);
#202=EDGE_CURVE('no 3772',#197,#189,#201,.T.);
#203=ORIENTED_EDGE('',*,*,#202,.F.);
#204=CARTESIAN_POINT('',(0.500347952,2.0,-0.0));
#205=VERTEX_POINT('',#204);
#206=CARTESIAN_POINT('',(0.5749748177,2.0,-2.0));
#207=DIRECTION('',(-0.99930458,0.0,-0.0372874843));
#208=DIRECTION('',(-0.0372874843,0.0,0.99930458));
#209=AXIS2_PLACEMENT_3D('',#206,#207,#208);
#210=ELLIPSE('',#209,2.001391808,2.0);
#211=EDGE_CURVE('no 3800',#197,#205,#210,.T.);
#212=ORIENTED_EDGE('',*,*,#211,.T.);
#213=CARTESIAN_POINT('',(0.500347952,15.5707124792,0.0));
#214=VERTEX_POINT('',#213);
#215=CARTESIAN_POINT('',(0.500347952,45.0,0.0));
#216=DIRECTION('',(0.0,-1.0,0.0));
#217=VECTOR('',#216,1.0);
#218=LINE('',#215,#217);
#219=EDGE_CURVE('no 3771',#214,#205,#218,.T.);
#220=ORIENTED_EDGE('',*,*,#219,.F.);
#221=CARTESIAN_POINT('',(0.7427300395,24.9409509822,-6.4958399455));
#222=VERTEX_POINT('',#221);
#223=CARTESIAN_POINT('',(0.8734822804,15.5759220894,-10.0));
#224=DIRECTION('',(-0.99930458,0.0,-0.0372874843));
#225=DIRECTION('',(-0.0349198368,-0.3506598614,0.9358516264));
#226=AXIS2_PLACEMENT_3D('',#223,#224,#225);
#227=ELLIPSE('',#226,10.0079343237,10.0);
#228=EDGE_CURVE('no 3801',#214,#222,#227,.T.);
#229=ORIENTED_EDGE('',*,*,#228,.T.);
#230=CARTESIAN_POINT('',(2.6770421907,44.3650288928,-58.335405597));
#231=VERTEX_POINT('',#230);
#232=CARTESIAN_POINT('',(0.49965229,22.5,0.0186437422));
#233=DIRECTION('',(-0.0349198368,-0.3506598614,0.9358516264));
#234=VECTOR('',#233,1.0);
#235=LINE('',#232,#234);
#236=EDGE_CURVE('no 3770',#231,#222,#235,.T.);
#237=ORIENTED_EDGE('',*,*,#236,.F.);
#238=CARTESIAN_POINT('',(2.8077944315,45.0,-61.8395656516));
#239=VERTEX_POINT('',#238);
#240=CARTESIAN_POINT('',(2.8077944315,35.0,-61.8395656516));
#241=DIRECTION('',(-0.99930458,0.0,-0.0372874843));
#242=DIRECTION('',(0.0372874843,0.0,-0.99930458));
#243=AXIS2_PLACEMENT_3D('',#240,#241,#242);
#244=CIRCLE('',#243,10.0);
#245=EDGE_CURVE('no 3797',#231,#239,#244,.T.);
#246=ORIENTED_EDGE('',*,*,#245,.T.);
#247=CARTESIAN_POINT('',(0.49965229,45.0,0.0186437422));
#248=DIRECTION('',(-0.0372874843,0.0,0.99930458));
#249=VECTOR('',#248,1.0);
#250=LINE('',#247,#249);
#251=EDGE_CURVE('no 3775',#36,#239,#250,.T.);
#252=ORIENTED_EDGE('',*,*,#251,.F.);
#253=ORIENTED_EDGE('',*,*,#42,.T.);
#254=EDGE_LOOP('',(
    #186,#187,#195,#203,#212,#220,#229,#237,#246,#252,
    #253));
#255=FACE_OUTER_BOUND('',#254,.T.);
#256=CARTESIAN_POINT('',(0.49965229,0.0,0.0186437422));
#257=DIRECTION('',(0.99930458,-0.0,0.0372874843));
#258=DIRECTION('',(0.0372874843,0.0,-0.99930458));
#259=AXIS2_PLACEMENT_3D('',#256,#257,#258);
#260=PLANE('',#259);
#261=ADVANCED_FACE('no 4098',(#255),#260,.F.);
#262=CARTESIAN_POINT('',(5.0,15.6335355196,0.0));
#263=VERTEX_POINT('',#262);
#264=CARTESIAN_POINT('',(0.4109019438,15.569463656,0.0));
#265=DIRECTION('',(-0.9999025489,-0.0139603946,0.0));
#266=VECTOR('',#265,1.0);
#267=LINE('',#264,#266);
#268=EDGE_CURVE('no 1052',#263,#214,#267,.T.);
#269=ORIENTED_EDGE('',*,*,#268,.T.);
#270=ORIENTED_EDGE('',*,*,#219,.T.);
#271=CARTESIAN_POINT('',(272.0,2.0,-0.0));
#272=DIRECTION('',(1.0,0.0,0.0));
#273=VECTOR('',#272,1.0);
#274=LINE('',#271,#273);
#275=EDGE_CURVE('no 3721',#205,#142,#274,.T.);
#276=ORIENTED_EDGE('',*,*,#275,.T.);
#277=ORIENTED_EDGE('',*,*,#147,.T.);
#278=CARTESIAN_POINT('',(267.0,15.6335355196,0.0));
#279=VERTEX_POINT('',#278);
#280=CARTESIAN_POINT('',(-0.3578911518,19.3663209466,0.0));
#281=DIRECTION('',(-0.9999025489,0.0139603946,0.0));
#282=VECTOR('',#281,1.0);
#283=LINE('',#280,#282);
#284=EDGE_CURVE('no 3327',#133,#279,#283,.T.);
#285=ORIENTED_EDGE('',*,*,#284,.T.);
#286=CARTESIAN_POINT('',(267.0,10.0,0.0));
#287=VERTEX_POINT('',#286);
#288=CARTESIAN_POINT('',(267.0,5.0,0.0));
#289=DIRECTION('',(0.0,1.0,0.0));
#290=VECTOR('',#289,1.0);
#291=LINE('',#288,#290);
#292=EDGE_CURVE('no 1190',#287,#279,#291,.T.);
#293=ORIENTED_EDGE('',*,*,#292,.F.);
#294=CARTESIAN_POINT('',(261.99652048,5.0,0.0));
#295=VERTEX_POINT('',#294);
#296=CARTESIAN_POINT('',(261.99652048,10.0,0.0));
#297=DIRECTION('',(0.0,0.0,-1.0));
#298=DIRECTION('',(1.0,0.0,0.0));
#299=AXIS2_PLACEMENT_3D('',#296,#297,#298);
#300=ELLIPSE('',#299,5.00347952,5.0);
#301=EDGE_CURVE('no 1216',#287,#295,#300,.T.);
#302=ORIENTED_EDGE('',*,*,#301,.T.);
#303=CARTESIAN_POINT('',(10.00347952,5.0,0.0));
#304=VERTEX_POINT('',#303);
#305=CARTESIAN_POINT('',(5.0,5.0,0.0));
#306=DIRECTION('',(1.0,0.0,0.0));
#307=VECTOR('',#306,1.0);
#308=LINE('',#305,#307);
#309=EDGE_CURVE('no 1171',#304,#295,#308,.T.);
#310=ORIENTED_EDGE('',*,*,#309,.F.);
#311=CARTESIAN_POINT('',(5.0,10.0,0.0));
#312=VERTEX_POINT('',#311);
#313=CARTESIAN_POINT('',(10.00347952,10.0,0.0));
#314=DIRECTION('',(0.0,0.0,-1.0));
#315=DIRECTION('',(1.0,0.0,0.0));
#316=AXIS2_PLACEMENT_3D('',#313,#314,#315);
#317=ELLIPSE('',#316,5.00347952,5.0);
#318=EDGE_CURVE('no 1220',#304,#312,#317,.T.);
#319=ORIENTED_EDGE('',*,*,#318,.T.);
#320=CARTESIAN_POINT('',(5.0,5.0,0.0));
#321=DIRECTION('',(0.0,1.0,0.0));
#322=VECTOR('',#321,1.0);
#323=LINE('',#320,#322);
#324=EDGE_CURVE('no 1209',#312,#263,#323,.T.);
#325=ORIENTED_EDGE('',*,*,#324,.T.);
#326=EDGE_LOOP('',(#269,#270,#276,#277,#285,#293,#302,#310,#319,#325));
#327=FACE_OUTER_BOUND('',#326,.T.);
#328=CARTESIAN_POINT('',(0.0,45.0,0.0));
#329=DIRECTION('',(0.0,0.0,-1.0));
#330=DIRECTION('',(-1.0,0.0,-0.0));
#331=AXIS2_PLACEMENT_3D('',#328,#329,#330);
#332=PLANE('',#331);
#333=ADVANCED_FACE('no 88',(#327),#332,.F.);
#334=ORIENTED_EDGE('',*,*,#48,.T.);
#335=ORIENTED_EDGE('',*,*,#251,.T.);
#336=CARTESIAN_POINT('',(7.3011903591,45.0,-61.6719016244));
#337=VERTEX_POINT('',#336);
#338=CARTESIAN_POINT('',(2.3081421416,45.0,-61.8582093937));
#339=DIRECTION('',(0.99930458,0.0,0.0372874843));
#340=VECTOR('',#339,1.0);
#341=LINE('',#338,#340);
#342=EDGE_CURVE('no 3728',#239,#337,#341,.T.);
#343=ORIENTED_EDGE('',*,*,#342,.T.);
#344=CARTESIAN_POINT('',(9.6641791045,45.0,-125.0));
#345=VERTEX_POINT('',#344);
#346=CARTESIAN_POINT('',(5.0,45.0,0.0));
#347=DIRECTION('',(-0.0372874843,0.0,0.99930458));
#348=VECTOR('',#347,1.0);
#349=LINE('',#346,#348);
#350=EDGE_CURVE('no 631',#345,#337,#349,.T.);
#351=ORIENTED_EDGE('',*,*,#350,.F.);
#352=CARTESIAN_POINT('',(262.3358208955,45.0,-125.0));
#353=VERTEX_POINT('',#352);
#354=CARTESIAN_POINT('',(9.6641791045,45.0,-125.0));
#355=DIRECTION('',(-1.0,0.0,0.0));
#356=VECTOR('',#355,1.0);
#357=LINE('',#354,#356);
#358=EDGE_CURVE('no 640',#353,#345,#357,.T.);
#359=ORIENTED_EDGE('',*,*,#358,.F.);
#360=CARTESIAN_POINT('',(264.6988096409,45.0,-61.6719016244));
#361=VERTEX_POINT('',#360);
#362=CARTESIAN_POINT('',(262.3358208955,45.0,-125.0));
#363=DIRECTION('',(-0.0372874843,0.0,-0.99930458));
#364=VECTOR('',#363,1.0);
#365=LINE('',#362,#364);
#366=EDGE_CURVE('no 1292',#361,#353,#365,.T.);
#367=ORIENTED_EDGE('',*,*,#366,.F.);
#368=CARTESIAN_POINT('',(-1.929965177,45.0,-51.7230667431));
#369=DIRECTION('',(0.99930458,0.0,-0.0372874843));
#370=VECTOR('',#369,1.0);
#371=LINE('',#368,#370);
#372=EDGE_CURVE('no 1308',#361,#108,#371,.T.);
#373=ORIENTED_EDGE('',*,*,#372,.T.);
#374=ORIENTED_EDGE('',*,*,#113,.T.);
#375=EDGE_LOOP('',(#334,#335,#343,#351,#359,#367,#373,#374));
#376=FACE_OUTER_BOUND('',#375,.T.);
#377=CARTESIAN_POINT('',(0.0,45.0,0.0));
#378=DIRECTION('',(0.0,-1.0,0.0));
#379=DIRECTION('',(0.0,-0.0,-1.0));
#380=AXIS2_PLACEMENT_3D('',#377,#378,#379);
#381=PLANE('',#380);
#382=ADVANCED_FACE('no 1',(#376),#381,.F.);
#383=ORIENTED_EDGE('',*,*,#350,.T.);
#384=CARTESIAN_POINT('',(7.1704381183,44.3650288928,-58.1677415699));
#385=VERTEX_POINT('',#384);
#386=CARTESIAN_POINT('',(7.3011903591,35.0,-61.6719016244));
#387=DIRECTION('',(0.99930458,0.0,0.0372874843));
#388=DIRECTION('',(-0.0372874843,0.0,0.99930458));
#389=AXIS2_PLACEMENT_3D('',#386,#387,#388);
#390=CIRCLE('',#389,10.0);
#391=EDGE_CURVE('no 1350',#337,#385,#390,.T.);
#392=ORIENTED_EDGE('',*,*,#391,.T.);
#393=CARTESIAN_POINT('',(5.2423820875,25.0037740226,-6.4958399455));
#394=VERTEX_POINT('',#393);
#395=CARTESIAN_POINT('',(4.7848579528,20.4093840043,5.7658068663));
#396=DIRECTION('',(-0.0349198368,-0.3506598614,0.9358516264));
#397=VECTOR('',#396,1.0);
#398=LINE('',#395,#397);
#399=EDGE_CURVE('no 1338',#385,#394,#398,.T.);
#400=ORIENTED_EDGE('',*,*,#399,.T.);
#401=CARTESIAN_POINT('',(5.3731343284,15.6387451298,-10.0));
#402=DIRECTION('',(0.99930458,0.0,0.0372874843));
#403=DIRECTION('',(-0.0349198368,-0.3506598614,0.9358516264));
#404=AXIS2_PLACEMENT_3D('',#401,#402,#403);
#405=ELLIPSE('',#404,10.0079343237,10.0);
#406=EDGE_CURVE('no 1099',#394,#263,#405,.T.);
#407=ORIENTED_EDGE('',*,*,#406,.T.);
#408=ORIENTED_EDGE('',*,*,#324,.F.);
#409=CARTESIAN_POINT('',(9.6641791045,10.0,-125.0));
#410=VERTEX_POINT('',#409);
#411=CARTESIAN_POINT('',(9.6641791045,10.0,-125.0));
#412=DIRECTION('',(0.0372874843,0.0,-0.99930458));
#413=VECTOR('',#412,1.0);
#414=LINE('',#411,#413);
#415=EDGE_CURVE('no 1211',#312,#410,#414,.T.);
#416=ORIENTED_EDGE('',*,*,#415,.T.);
#417=CARTESIAN_POINT('',(9.6641791045,5.0,-125.0));
#418=DIRECTION('',(0.0,1.0,0.0));
#419=VECTOR('',#418,1.0);
#420=LINE('',#417,#419);
#421=EDGE_CURVE('no 1201',#410,#345,#420,.T.);
#422=ORIENTED_EDGE('',*,*,#421,.T.);
#423=EDGE_LOOP('',(#383,#392,#400,#407,#408,#416,#422));
#424=FACE_OUTER_BOUND('',#423,.T.);
#425=CARTESIAN_POINT('',(5.0,5.0,0.0));
#426=DIRECTION('',(-0.99930458,-0.0,-0.0372874843));
#427=DIRECTION('',(-0.0372874843,0.0,0.99930458));
#428=AXIS2_PLACEMENT_3D('',#425,#426,#427);
#429=PLANE('',#428);
#430=ADVANCED_FACE('no 651',(#424),#429,.F.);
#431=ORIENTED_EDGE('',*,*,#421,.F.);
#432=CARTESIAN_POINT('',(262.3358208955,10.0,-125.0));
#433=VERTEX_POINT('',#432);
#434=CARTESIAN_POINT('',(262.3358208955,10.0,-125.0));
#435=DIRECTION('',(1.0,0.0,0.0));
#436=VECTOR('',#435,1.0);
#437=LINE('',#434,#436);
#438=EDGE_CURVE('no 1203',#410,#433,#437,.T.);
#439=ORIENTED_EDGE('',*,*,#438,.T.);
#440=CARTESIAN_POINT('',(262.3358208955,5.0,-125.0));
#441=DIRECTION('',(0.0,1.0,0.0));
#442=VECTOR('',#441,1.0);
#443=LINE('',#440,#442);
#444=EDGE_CURVE('no 1193',#433,#353,#443,.T.);
#445=ORIENTED_EDGE('',*,*,#444,.T.);
#446=ORIENTED_EDGE('',*,*,#358,.T.);
#447=EDGE_LOOP('',(#431,#439,#445,#446));
#448=FACE_OUTER_BOUND('',#447,.T.);
#449=CARTESIAN_POINT('',(9.6641791045,5.0,-125.0));
#450=DIRECTION('',(0.0,0.0,-1.0));
#451=DIRECTION('',(-1.0,0.0,-0.0));
#452=AXIS2_PLACEMENT_3D('',#449,#450,#451);
#453=PLANE('',#452);
#454=ADVANCED_FACE('no 655',(#448),#453,.F.);
#455=CARTESIAN_POINT('',(266.7576179125,25.0037740226,-6.4958399455));
#456=VERTEX_POINT('',#455);
#457=CARTESIAN_POINT('',(264.8295618817,44.3650288928,-58.1677415699));
#458=VERTEX_POINT('',#457);
#459=CARTESIAN_POINT('',(263.124481312,61.487197003,-103.8639008383));
#460=DIRECTION('',(-0.0349198368,0.3506598614,-0.9358516264));
#461=VECTOR('',#460,1.0);
#462=LINE('',#459,#461);
#463=EDGE_CURVE('no 1063',#456,#458,#462,.T.);
#464=ORIENTED_EDGE('',*,*,#463,.T.);
#465=CARTESIAN_POINT('',(264.6988096409,35.0,-61.6719016244));
#466=DIRECTION('',(-0.99930458,-0.0,0.0372874843));
#467=DIRECTION('',(-0.0372874843,0.0,-0.99930458));
#468=AXIS2_PLACEMENT_3D('',#465,#466,#467);
#469=CIRCLE('',#468,10.0);
#470=EDGE_CURVE('no 1329',#458,#361,#469,.T.);
#471=ORIENTED_EDGE('',*,*,#470,.T.);
#472=ORIENTED_EDGE('',*,*,#366,.T.);
#473=ORIENTED_EDGE('',*,*,#444,.F.);
#474=CARTESIAN_POINT('',(267.0,10.0,0.0));
#475=DIRECTION('',(0.0372874843,0.0,0.99930458));
#476=VECTOR('',#475,1.0);
#477=LINE('',#474,#476);
#478=EDGE_CURVE('no 1195',#433,#287,#477,.T.);
#479=ORIENTED_EDGE('',*,*,#478,.T.);
#480=ORIENTED_EDGE('',*,*,#292,.T.);
#481=CARTESIAN_POINT('',(266.6268656716,15.6387451298,-10.0));
#482=DIRECTION('',(-0.99930458,-0.0,0.0372874843));
#483=DIRECTION('',(-0.0349198368,0.3506598614,-0.9358516264));
#484=AXIS2_PLACEMENT_3D('',#481,#482,#483);
#485=ELLIPSE('',#484,10.0079343237,10.0);
#486=EDGE_CURVE('no 1065',#279,#456,#485,.T.);
#487=ORIENTED_EDGE('',*,*,#486,.T.);
#488=EDGE_LOOP('',(#464,#471,#472,#473,#479,#480,#487));
#489=FACE_OUTER_BOUND('',#488,.T.);
#490=CARTESIAN_POINT('',(262.3358208955,5.0,-125.0));
#491=DIRECTION('',(0.99930458,0.0,-0.0372874843));
#492=DIRECTION('',(-0.0372874843,0.0,-0.99930458));
#493=AXIS2_PLACEMENT_3D('',#490,#491,#492);
#494=PLANE('',#493);
#495=ADVANCED_FACE('no 659',(#489),#494,.F.);
#496=ORIENTED_EDGE('',*,*,#309,.T.);
#497=CARTESIAN_POINT('',(257.5189085397,5.0,-120.0));
#498=VERTEX_POINT('',#497);
#499=CARTESIAN_POINT('',(257.3392979958,5.0,-124.8135625784));
#500=DIRECTION('',(-0.0372874843,0.0,-0.99930458));
#501=VECTOR('',#500,1.0);
#502=LINE('',#499,#501);
#503=EDGE_CURVE('no 1184',#295,#498,#502,.T.);
#504=ORIENTED_EDGE('',*,*,#503,.T.);
#505=CARTESIAN_POINT('',(14.4810914603,5.0,-120.0));
#506=VERTEX_POINT('',#505);
#507=CARTESIAN_POINT('',(9.6641791045,5.0,-120.0));
#508=DIRECTION('',(-1.0,0.0,0.0));
#509=VECTOR('',#508,1.0);
#510=LINE('',#507,#509);
#511=EDGE_CURVE('no 1181',#498,#506,#510,.T.);
#512=ORIENTED_EDGE('',*,*,#511,.T.);
#513=CARTESIAN_POINT('',(9.9965228998,5.0,0.1864374216));
#514=DIRECTION('',(-0.0372874843,0.0,0.99930458));
#515=VECTOR('',#514,1.0);
#516=LINE('',#513,#515);
#517=EDGE_CURVE('no 1177',#506,#304,#516,.T.);
#518=ORIENTED_EDGE('',*,*,#517,.T.);
#519=EDGE_LOOP('',(#496,#504,#512,#518));
#520=FACE_OUTER_BOUND('',#519,.T.);
#521=CARTESIAN_POINT('',(0.0,5.0,0.0));
#522=DIRECTION('',(0.0,-1.0,0.0));
#523=DIRECTION('',(0.0,-0.0,-1.0));
#524=AXIS2_PLACEMENT_3D('',#521,#522,#523);
#525=PLANE('',#524);
#526=ADVANCED_FACE('no 667',(#520),#525,.F.);
#527=CARTESIAN_POINT('',(7.1739128005,44.3650288928,-58.1676119175));
#528=DIRECTION('',(-0.99930458,0.0,-0.0372874843));
#529=VECTOR('',#528,1.0);
#530=LINE('',#527,#529);
#531=EDGE_CURVE('no 1340',#385,#231,#530,.T.);
#532=ORIENTED_EDGE('',*,*,#531,.T.);
#533=ORIENTED_EDGE('',*,*,#236,.T.);
#534=CARTESIAN_POINT('',(4.9616205488,24.9998540987,-6.4958399455));
#535=DIRECTION('',(0.9999025489,0.0139603946,0.0));
#536=VECTOR('',#535,1.0);
#537=LINE('',#534,#536);
#538=EDGE_CURVE('no 3739',#222,#394,#537,.T.);
#539=ORIENTED_EDGE('',*,*,#538,.T.);
#540=ORIENTED_EDGE('',*,*,#399,.F.);
#541=EDGE_LOOP('',(#532,#533,#539,#540));
#542=FACE_OUTER_BOUND('',#541,.T.);
#543=CARTESIAN_POINT('',(4.9965228998,22.5,0.1864374216));
#544=DIRECTION('',(0.0130752241,-0.9365028893,-0.3504160055));
#545=DIRECTION('',(0.0,0.3504459631,-0.9365829525));
#546=AXIS2_PLACEMENT_3D('',#543,#544,#545);
#547=PLANE('',#546);
#548=ADVANCED_FACE('no 790',(#542),#547,.F.);
#549=CARTESIAN_POINT('',(267.0383794512,24.9998540987,-6.4958399455));
#550=DIRECTION('',(0.9999025489,-0.0139603946,0.0));
#551=VECTOR('',#550,1.0);
#552=LINE('',#549,#551);
#553=EDGE_CURVE('no 1073',#456,#125,#552,.T.);
#554=ORIENTED_EDGE('',*,*,#553,.T.);
#555=ORIENTED_EDGE('',*,*,#130,.T.);
#556=CARTESIAN_POINT('',(264.8260871995,44.3650288928,-58.1676119175));
#557=DIRECTION('',(-0.99930458,0.0,0.0372874843));
#558=VECTOR('',#557,1.0);
#559=LINE('',#556,#558);
#560=EDGE_CURVE('no 3313',#116,#458,#559,.T.);
#561=ORIENTED_EDGE('',*,*,#560,.T.);
#562=ORIENTED_EDGE('',*,*,#463,.F.);
#563=EDGE_LOOP('',(#554,#555,#561,#562));
#564=FACE_OUTER_BOUND('',#563,.T.);
#565=CARTESIAN_POINT('',(267.0034771002,22.5,0.1864374216));
#566=DIRECTION('',(-0.0130752241,-0.9365028893,-0.3504160055));
#567=DIRECTION('',(0.0,0.3504459631,-0.9365829525));
#568=AXIS2_PLACEMENT_3D('',#565,#566,#567);
#569=PLANE('',#568);
#570=ADVANCED_FACE('no 951',(#564),#569,.F.);
#571=ORIENTED_EDGE('',*,*,#139,.F.);
#572=ORIENTED_EDGE('',*,*,#553,.F.);
#573=ORIENTED_EDGE('',*,*,#486,.F.);
#574=ORIENTED_EDGE('',*,*,#284,.F.);
#575=EDGE_LOOP('',(#571,#572,#573,#574));
#576=FACE_OUTER_BOUND('',#575,.T.);
#577=CARTESIAN_POINT('',(-0.3578911518,19.3663209466,-10.0));
#578=DIRECTION('',(-0.9999025489,0.0139603946,0.0));
#579=DIRECTION('',(-0.0139603946,-0.9999025489,0.0));
#580=AXIS2_PLACEMENT_3D('',#577,#578,#579);
#581=CYLINDRICAL_SURFACE('',#580,10.0);
#582=ADVANCED_FACE('no 1113',(#576),#581,.T.);
#583=ORIENTED_EDGE('',*,*,#228,.F.);
#584=ORIENTED_EDGE('',*,*,#268,.F.);
#585=ORIENTED_EDGE('',*,*,#406,.F.);
#586=ORIENTED_EDGE('',*,*,#538,.F.);
#587=EDGE_LOOP('',(#583,#584,#585,#586));
#588=FACE_OUTER_BOUND('',#587,.T.);
#589=CARTESIAN_POINT('',(0.4109019438,15.569463656,-10.0));
#590=DIRECTION('',(-0.9999025489,-0.0139603946,-0.0));
#591=DIRECTION('',(0.0139603946,-0.9999025489,0.0));
#592=AXIS2_PLACEMENT_3D('',#589,#590,#591);
#593=CYLINDRICAL_SURFACE('',#592,10.0);
#594=ADVANCED_FACE('no 1134',(#588),#593,.T.);
#595=ORIENTED_EDGE('',*,*,#318,.F.);
#596=ORIENTED_EDGE('',*,*,#517,.F.);
#597=CARTESIAN_POINT('',(14.4810914603,10.0,-120.0));
#598=DIRECTION('',(-0.7201692455,-0.0,0.6937984274));
#599=DIRECTION('',(0.6937984274,0.0,0.7201692455));
#600=AXIS2_PLACEMENT_3D('',#597,#598,#599);
#601=ELLIPSE('',#600,6.9428124448,5.0);
#602=EDGE_CURVE('no 1245',#410,#506,#601,.T.);
#603=ORIENTED_EDGE('',*,*,#602,.F.);
#604=ORIENTED_EDGE('',*,*,#415,.F.);
#605=EDGE_LOOP('',(#595,#596,#603,#604));
#606=FACE_OUTER_BOUND('',#605,.T.);
#607=CARTESIAN_POINT('',(9.9895711173,10.0,0.3727451909));
#608=DIRECTION('',(0.0372874843,0.0,-0.99930458));
#609=DIRECTION('',(-0.99930458,0.0,-0.0372874843));
#610=AXIS2_PLACEMENT_3D('',#607,#608,#609);
#611=CYLINDRICAL_SURFACE('',#610,5.0);
#612=ADVANCED_FACE('no 1233',(#606),#611,.F.);
#613=ORIENTED_EDGE('',*,*,#602,.T.);
#614=ORIENTED_EDGE('',*,*,#511,.F.);
#615=CARTESIAN_POINT('',(257.5189085397,10.0,-120.0));
#616=DIRECTION('',(-0.7201692455,-0.0,-0.6937984274));
#617=DIRECTION('',(-0.6937984274,0.0,0.7201692455));
#618=AXIS2_PLACEMENT_3D('',#615,#616,#617);
#619=ELLIPSE('',#618,6.9428124448,5.0);
#620=EDGE_CURVE('no 1250',#433,#498,#619,.T.);
#621=ORIENTED_EDGE('',*,*,#620,.F.);
#622=ORIENTED_EDGE('',*,*,#438,.F.);
#623=EDGE_LOOP('',(#613,#614,#621,#622));
#624=FACE_OUTER_BOUND('',#623,.T.);
#625=CARTESIAN_POINT('',(0.0,10.0,-120.0));
#626=DIRECTION('',(1.0,0.0,0.0));
#627=DIRECTION('',(0.0,0.0,-1.0));
#628=AXIS2_PLACEMENT_3D('',#625,#626,#627);
#629=CYLINDRICAL_SURFACE('',#628,5.0);
#630=ADVANCED_FACE('no 1235',(#624),#629,.F.);
#631=ORIENTED_EDGE('',*,*,#301,.F.);
#632=ORIENTED_EDGE('',*,*,#478,.F.);
#633=ORIENTED_EDGE('',*,*,#620,.T.);
#634=ORIENTED_EDGE('',*,*,#503,.F.);
#635=EDGE_LOOP('',(#631,#632,#633,#634));
#636=FACE_OUTER_BOUND('',#635,.T.);
#637=CARTESIAN_POINT('',(261.6322519181,10.0,-9.7623974596));
#638=DIRECTION('',(0.0372874843,0.0,0.99930458));
#639=DIRECTION('',(0.99930458,0.0,-0.0372874843));
#640=AXIS2_PLACEMENT_3D('',#637,#638,#639);
#641=CYLINDRICAL_SURFACE('',#640,5.0);
#642=ADVANCED_FACE('no 1237',(#636),#641,.F.);
#643=ORIENTED_EDGE('',*,*,#122,.F.);
#644=ORIENTED_EDGE('',*,*,#372,.F.);
#645=ORIENTED_EDGE('',*,*,#470,.F.);
#646=ORIENTED_EDGE('',*,*,#560,.F.);
#647=EDGE_LOOP('',(#643,#644,#645,#646));
#648=FACE_OUTER_BOUND('',#647,.T.);
#649=CARTESIAN_POINT('',(-1.929965177,35.0,-51.7230667431));
#650=DIRECTION('',(0.99930458,0.0,-0.0372874843));
#651=DIRECTION('',(-0.0372874843,0.0,-0.99930458));
#652=AXIS2_PLACEMENT_3D('',#649,#650,#651);
#653=CYLINDRICAL_SURFACE('',#652,10.0);
#654=ADVANCED_FACE('no 1364',(#648),#653,.T.);
#655=ORIENTED_EDGE('',*,*,#245,.F.);
#656=ORIENTED_EDGE('',*,*,#531,.F.);
#657=ORIENTED_EDGE('',*,*,#391,.F.);
#658=ORIENTED_EDGE('',*,*,#342,.F.);
#659=EDGE_LOOP('',(#655,#656,#657,#658));
#660=FACE_OUTER_BOUND('',#659,.T.);
#661=CARTESIAN_POINT('',(7.3046650413,35.0,-61.6717719721));
#662=DIRECTION('',(-0.99930458,0.0,-0.0372874843));
#663=DIRECTION('',(-0.0372874843,0.0,0.99930458));
#664=AXIS2_PLACEMENT_3D('',#661,#662,#663);
#665=CYLINDRICAL_SURFACE('',#664,10.0);
#666=ADVANCED_FACE('no 1385',(#660),#665,.T.);
#667=ORIENTED_EDGE('',*,*,#211,.F.);
#668=CARTESIAN_POINT('',(0.0,0.0,-2.0));
#669=DIRECTION('',(-1.0,0.0,0.0));
#670=VECTOR('',#669,1.0);
#671=LINE('',#668,#670);
#672=EDGE_CURVE('no 3285',#150,#197,#671,.T.);
#673=ORIENTED_EDGE('',*,*,#672,.F.);
#674=ORIENTED_EDGE('',*,*,#156,.F.);
#675=ORIENTED_EDGE('',*,*,#275,.F.);
#676=EDGE_LOOP('',(#667,#673,#674,#675));
#677=FACE_OUTER_BOUND('',#676,.T.);
#678=CARTESIAN_POINT('',(0.0,2.0,-2.0));
#679=DIRECTION('',(-1.0,0.0,0.0));
#680=DIRECTION('',(0.0,0.0,1.0));
#681=AXIS2_PLACEMENT_3D('',#678,#679,#680);
#682=CYLINDRICAL_SURFACE('',#681,2.0);
#683=ADVANCED_FACE('no 1481',(#677),#682,.T.);
#684=CARTESIAN_POINT('',(-55.770936107,-0.0,-100.841017761));
#685=DIRECTION('',(-1.0,0.0,0.0));
#686=VECTOR('',#685,1.0);
#687=LINE('',#684,#686);
#688=EDGE_CURVE('no 3282',#159,#189,#687,.T.);
#689=ORIENTED_EDGE('',*,*,#688,.T.);
#690=ORIENTED_EDGE('',*,*,#194,.T.);
#691=ORIENTED_EDGE('',*,*,#90,.T.);
#692=ORIENTED_EDGE('',*,*,#170,.T.);
#693=EDGE_LOOP('',(#689,#690,#691,#692));
#694=FACE_OUTER_BOUND('',#693,.T.);
#695=CARTESIAN_POINT('',(-55.770936107,-5.0,-69.8676989883));
#696=DIRECTION('',(0.0,0.9872195494,0.1593661236));
#697=DIRECTION('',(0.0,-0.1593661236,0.9872195494));
#698=AXIS2_PLACEMENT_3D('',#695,#696,#697);
#699=PLANE('',#698);
#700=ADVANCED_FACE('no 2250',(#694),#699,.F.);
#701=ORIENTED_EDGE('',*,*,#672,.T.);
#702=ORIENTED_EDGE('',*,*,#202,.T.);
#703=ORIENTED_EDGE('',*,*,#688,.F.);
#704=ORIENTED_EDGE('',*,*,#164,.T.);
#705=EDGE_LOOP('',(#701,#702,#703,#704));
#706=FACE_OUTER_BOUND('',#705,.T.);
#707=CARTESIAN_POINT('',(0.0,0.0,0.0));
#708=DIRECTION('',(0.0,1.0,0.0));
#709=DIRECTION('',(0.0,-0.0,1.0));
#710=AXIS2_PLACEMENT_3D('',#707,#708,#709);
#711=PLANE('',#710);
#712=ADVANCED_FACE('no 3060',(#706),#711,.F.);
#713=ORIENTED_EDGE('',*,*,#104,.T.);
#714=ORIENTED_EDGE('',*,*,#75,.F.);
#715=ORIENTED_EDGE('',*,*,#185,.T.);
#716=ORIENTED_EDGE('',*,*,#33,.F.);
#717=EDGE_LOOP('',(#713,#714,#715,#716));
#718=FACE_OUTER_BOUND('',#717,.T.);
#719=CARTESIAN_POINT('',(0.0,11.7734665086,-132.4514982215));
#720=DIRECTION('',(0.0,0.0885397903,-0.9960726407));
#721=DIRECTION('',(0.0,0.9960726407,0.0885397903));
#722=AXIS2_PLACEMENT_3D('',#719,#720,#721);
#723=PLANE('',#722);
#724=ADVANCED_FACE('no 4171',(#718),#723,.T.);
#725=CLOSED_SHELL('Cut-Extrude21',(
    #57,#99,#180,#261,#333,#382,#430,#454,#495,#526,
    #548,#570,#582,#594,#612,#630,#642,#654,#666,#683,
    #700,#712,#724));
#726=MANIFOLD_SOLID_BREP('Cut-Extrude21',#725);
#727=COLOUR_RGB('',0.79608,0.82353,0.93725);
#728=FILL_AREA_STYLE_COLOUR('',#727);
#729=FILL_AREA_STYLE('',(#728));
#730=SURFACE_STYLE_FILL_AREA(#729);
#731=SURFACE_SIDE_STYLE('',(#730));
#732=SURFACE_STYLE_USAGE(.BOTH.,#731);
#733=PRESENTATION_STYLE_ASSIGNMENT((#732));
#734=STYLED_ITEM('',(#733),#726);
#735=CARTESIAN_POINT('Sketch20',(272.2233705178,5.0,-131.8143365337));
#736=CARTESIAN_POINT('Sketch20',(294.229063893,5.0,-131.8143365337));
#737=CARTESIAN_POINT('',(272.2233705178,5.0,-131.8143365337));
#738=DIRECTION('',(1.0,0.0,0.0));
#739=VECTOR('',#738,1.0);
#740=LINE('',#737,#739);
#741=TRIMMED_CURVE('',#740,(PARAMETER_VALUE(0.0)),(PARAMETER_VALUE(22.0056933751)),.T.,.PARAMETER.);
#742=GEOMETRIC_CURVE_SET('Sketch20',(#735,#736,#741));
#743=COLOUR_RGB('',0.50196,0.50196,0.50196);
#744=DRAUGHTING_PRE_DEFINED_CURVE_FONT('continuous');
#745=CURVE_STYLE('',#744,POSITIVE_LENGTH_MEASURE(0.1),#743);
#746=PRESENTATION_STYLE_ASSIGNMENT((#745));
#747=STYLED_ITEM('',(#746),#742);
#748=CARTESIAN_POINT('',(0.,0.,0.));
#749=DIRECTION('',(0.,0.,1.));
#750=DIRECTION('',(1.,0.,0.));
#751=AXIS2_PLACEMENT_3D('Reference Axes',#748,#749,#750);
#752=SHAPE_REPRESENTATION('',(#751,#726,#742),#5);
#753=SHAPE_DEFINITION_REPRESENTATION(#12,#752);
#754=GENERAL_PROPERTY('','Density',$);
#755=(MASS_UNIT()NAMED_UNIT(*)SI_UNIT(.KILO.,.GRAM.));
#756=MASS_MEASURE_WITH_UNIT(MASS_MEASURE(0.001),#755);
#757=DIMENSIONAL_EXPONENTS(0.,1.,0.,0.,0.,0.,0.);
#758=(CONVERSION_BASED_UNIT('gram',#756)MASS_UNIT()NAMED_UNIT(#757));
#759=DERIVED_UNIT_ELEMENT(#758,1.0);
#760=DERIVED_UNIT_ELEMENT(#3,-3.0);
#761=DERIVED_UNIT((#759,#760));
#762=MEASURE_REPRESENTATION_ITEM('',NUMERIC_MEASURE(0.001),#761);
#763=PROPERTY_DEFINITION('Density','system property',#11);
#764=REPRESENTATION('',(#762),#5);
#765=PROPERTY_DEFINITION_REPRESENTATION(#763,#764);
#766=ID_ATTRIBUTE('mass property',#763);
#767=GENERAL_PROPERTY_ASSOCIATION('',$,#754,#763);
#768=CARTESIAN_POINT('',(0.,0.,0.));
#769=DIRECTION('',(0.,0.,1.));
#770=DIRECTION('',(1.,0.,0.));
#771=AXIS2_PLACEMENT_3D('',#768,#769,#770);
#772=REPRESENTATION_MAP(#771,#752);
#773=MAPPED_ITEM('',#772,#771);
#774=PRESENTATION_STYLE_ASSIGNMENT((NULL_STYLE(.NULL.)));
#775=STYLED_ITEM('',(#774),#752);
#776=MECHANICAL_DESIGN_GEOMETRIC_PRESENTATION_REPRESENTATION('',(#734,#747,#773,#775),#5);
ENDSEC;
END-ISO-10303-21;
